<svg width="20" height="15" viewBox="0 0 20 15" fill="none" xmlns="http://www.w3.org/2000/svg">
<path d="M19.4624 2.54597L7.4624 14.546C7.35788 14.6509 7.23369 14.7341 7.09695 14.7909C6.9602 14.8476 6.81359 14.8769 6.66553 14.8769C6.51746 14.8769 6.37085 14.8476 6.2341 14.7909C6.09736 14.7341 5.97317 14.6509 5.86865 14.546L0.618651 9.29598C0.514003 9.19133 0.430993 9.06709 0.374358 8.93037C0.317724 8.79364 0.288574 8.64709 0.288574 8.4991C0.288574 8.35111 0.317724 8.20456 0.374358 8.06783C0.430993 7.93111 0.514003 7.80687 0.618651 7.70223C0.723298 7.59758 0.847532 7.51457 0.98426 7.45793C1.12099 7.4013 1.26753 7.37215 1.41553 7.37215C1.56352 7.37215 1.71006 7.4013 1.84679 7.45793C1.98352 7.51457 2.10775 7.59758 2.2124 7.70223L6.66646 12.1563L17.8705 0.9541C18.0819 0.742755 18.3685 0.624023 18.6674 0.624023C18.9663 0.624023 19.2529 0.742755 19.4643 0.9541C19.6756 1.16544 19.7944 1.45209 19.7944 1.75098C19.7944 2.04986 19.6756 2.33651 19.4643 2.54785L19.4624 2.54597Z" fill="#77783E"/>
</svg>
