<svg xmlns="http://www.w3.org/2000/svg" viewBox="0 0 266.95 54.05"><title>SketchUp logo</title><path d="M444.91,520.31l4.63-2.43c2.06,4.06,5.23,6,9.52,6s7-1.36,7-4.48-2.15-4.39-7.84-6.07c-6.68-2-12-3.78-12-10.37,0-5.88,4.81-9.76,11.81-9.76,6.82,0,10.83,3.36,12.94,7.42l-4.25,2.94a9.56,9.56,0,0,0-8.73-5c-3.83,0-6,1.4-6,3.92,0,3.22,2.47,4.3,8.12,6,6.54,1.91,11.77,4.06,11.77,10.55,0,5.65-4.81,10.08-13,10.08C452,529.09,447.11,525.54,444.91,520.31Z" transform="translate(-378.52 -484.98)" style="fill:#363545"/><path d="M474.29,528.44V493.88H480v20.59l9.38-10.83h6.3l-8.08,9.06,8.78,15.74h-6L484,517l-4,4.34v7.14h-5.74Z" transform="translate(-378.52 -484.98)" style="fill:#363545"/><path d="M496.1,516.07c0-9.43,6.68-12.89,11.81-12.89,5.56,0,10.88,3.31,10.88,13.4v1.36h-17c.23,4.48,3,6.44,6.63,6.44a9,9,0,0,0,7-2.9l3,3A13.39,13.39,0,0,1,508.06,529C501.84,529,496.1,525.17,496.1,516.07Zm17.42-2.43c-.33-3.78-2.2-5.79-5.65-5.79-2.8,0-5.37,1.59-5.93,5.79Z" transform="translate(-378.52 -484.98)" style="fill:#363545"/><path d="M525,521.95V508.22h-4.3v-4.58H525V495h5.74v8.64h6.4v4.58h-6.4V520.5c0,2.66.79,3.74,3.64,3.74a9.27,9.27,0,0,0,2.47-.33v4.53a28.45,28.45,0,0,1-4.2.33C526.36,528.76,525,526.43,525,521.95Z" transform="translate(-378.52 -484.98)" style="fill:#363545"/><path d="M539.38,516.07c0-9.48,6.4-12.89,11.91-12.89,6.17,0,8.78,3.41,10.27,7.24l-4.86,1.73c-1-2.8-2.76-4.16-5.51-4.16-3.27,0-6,2.15-6,8.08,0,5.28,2.15,8.17,5.93,8.17,2.61,0,4.44-.79,5.79-4.3l4.76,1.73c-1.77,4-4.71,7.28-10.69,7.28C545.22,529,539.38,525.12,539.38,516.07Z" transform="translate(-378.52 -484.98)" style="fill:#363545"/><path d="M565.11,528.44V493.88h5.79V507a12.3,12.3,0,0,1,9.06-3.83c4.34,0,7.14,2.57,7.14,7.47v17.79h-5.79V512.09c0-2.75-1.17-4-3.69-4s-4.63,1.31-6.73,3.22v17.14h-5.79Z" transform="translate(-378.52 -484.98)" style="fill:#363545"/><path d="M591.5,515.83V493.88h5.84v21.43c0,5.28,2.29,8.41,7.61,8.41s7.57-3,7.57-8.36V493.88h5.74v21.9c0,7.84-4.44,13.21-13.35,13.21C595.37,529,591.5,523.68,591.5,515.83Z" transform="translate(-378.52 -484.98)" style="fill:#363545"/><path d="M622,537.78V503.64h5.74v3.27a10,10,0,0,1,7.89-3.74c5.65,0,9.81,4.25,9.81,12.84s-4.25,12.79-10.6,12.79a9.45,9.45,0,0,1-7.1-3.13v12.09H622Zm17.7-21.71c0-5.23-2.24-8-5.93-8a8.35,8.35,0,0,0-6,3.13v9.95a7.56,7.56,0,0,0,5.84,3.08C638,524.23,639.73,521.58,639.73,516.07Z" transform="translate(-378.52 -484.98)" style="fill:#363545"/><path d="M428.21,496.75l-17.59-10.14a15.41,15.41,0,0,0-7.23-1.63,14.72,14.72,0,0,0-7.31,1.68L379.77,496l24.79,14.25V539l16.31-9.31a15.2,15.2,0,0,0,5.13-5.43,17.24,17.24,0,0,0,2.2-6.63v-20.9Zm-26.53,4.69a11,11,0,0,1,6.71,1.1l4.89,2.82s0,2.47,0,6.16c0,3-2.5,6-2.5,6V506.69Zm14.42,23.79-5.31,3v-2.86l4.13-2.36a11,11,0,0,0,4.59-8.47V501.73l-11.27-6.49a9.3,9.3,0,0,0-4.79-1.12,9.65,9.65,0,0,0-4.76,1l-4,2.28L392.2,496l5.47-3.12a12.7,12.7,0,0,1,5.73-1.19,14.4,14.4,0,0,1,5.86,1.29L422,500.31v14A13.51,13.51,0,0,1,416.09,525.22Z" transform="translate(-378.52 -484.98)" style="fill:#005f9e"/><path d="M378.52,505.31l17.38,10v3L386,512.58l-6.22,3.54,16.1,9.28v2.86l-17.24-9.92a17.76,17.76,0,0,0,3.11,7.52,14,14,0,0,0,4.38,4L402.08,539V511.66l-23.54-13.52Z" transform="translate(-378.52 -484.98)" style="fill:#005f9e"/></svg>