<svg id="Layer_1" data-name="Layer 1" xmlns="http://www.w3.org/2000/svg" viewBox="0 0 459.47 144.01"><title>AutoCAD 2018 logo - Brandlogos.net</title><path d="M157.51,325.93c7.71-4.58,15.36-9.3,23.09-13.85q0,59.14,0,118.3c-3.87,2.43-7.81,4.72-11.7,7.09-3.42,2.09-6.9,4.07-10.27,6.24a11.44,11.44,0,0,1-4,1.64V331.11C153.33,328.07,155.79,327.1,157.51,325.93Z" transform="translate(-154.26 -312)" style="fill:#e85984"/><path d="M180.6,312.08c37.28-.16,74.57,0,111.84-.07,4.48-.27,9,3.11,9.27,7.71.16,6.36,0,12.74.07,19.11q0,45.72,0,91.45c-40.39.17-80.79,0-121.18.09Q180.62,371.23,180.6,312.08Zm48.59,27.7c-6,21.48-12.29,42.9-18.33,64.37,5.5.06,11,0,16.49,0q1.72-7.27,3.77-14.47c6.42,0,12.84,0,19.25,0,1.52,4.81,2.62,9.74,4.14,14.54,5.57-.07,11.14,0,16.71-.06-6.15-21.85-13.26-43.44-19.39-65.29-6-1-12.09-.18-18.13-.46C232.2,338.58,229.67,337.76,229.19,339.78Z" transform="translate(-154.26 -312)" style="fill:#e51050"/><path d="M240.27,350c2.84,9,4.53,18.29,7,27.39-4.41.14-8.84.07-13.26,0C236.08,368.27,238.63,359.22,240.27,350Z" transform="translate(-154.26 -312)" style="fill:#e51050"/><path d="M229.19,339.78c.48-2,3-1.21,4.51-1.38,6,.28,12.14-.51,18.13.46,6.13,21.85,13.24,43.45,19.39,65.29-5.57.08-11.14,0-16.71.06-1.52-4.8-2.63-9.73-4.14-14.54-6.42.06-12.84,0-19.25,0q-2.05,7.19-3.77,14.47c-5.5,0-11,0-16.49,0C216.9,382.68,223.14,361.26,229.19,339.78ZM240.27,350c-1.64,9.24-4.18,18.29-6.29,27.43,4.42,0,8.85.1,13.26,0C244.8,368.27,243.11,359,240.27,350Z" transform="translate(-154.26 -312)" style="fill:#fff"/><path d="M301.78,338.84h11.66q0,58.59,0,117.17H174c-2.39-1.39-4.69-3.56-4.94-6.47-.29-4,0-8-.14-12.06,3.89-2.37,7.84-4.66,11.7-7.09,40.39-.1,80.79.08,121.18-.09Q301.78,384.57,301.78,338.84Z" transform="translate(-154.26 -312)" style="fill:#78082a"/><path d="M501.6,350.45c7.93-5.86,19.66-4.87,27.18,1.27-1.36,1.64-2.75,3.26-4.11,4.9-2.68-.91-5-2.89-7.9-3.07s-5.82-.33-8.26,1.26a10.19,10.19,0,0,0-4.63,9c-.08,5.44-.15,10.89,0,16.33a9.06,9.06,0,0,0,5.88,8.38c5.15,1.36,10.53,0,15-2.76,1,1.81,3.29,3.29,3.06,5.5a24.06,24.06,0,0,1-19.32,4.08c-5.06-.94-9.84-4.21-11.82-9.07-2.56-5.77-1.4-12.22-1.68-18.32C494.74,361.6,496.18,354.42,501.6,350.45Z" transform="translate(-154.26 -312)"/><path d="M375.07,347.7c4.94,15.83,10.33,31.52,15.08,47.4-3,0-5.93,0-8.88,0-1.26-4.12-2.72-8.17-3.79-12.34-5.33-.69-10.74-.08-16.1-.36a113.12,113.12,0,0,0-3.69,12.66c-3,.07-5.94.06-8.9,0q7.12-23.74,14.47-47.41Zm-12,27.88c4,0,8.09,0,12.14,0-2.09-7.18-4.06-14.38-6.1-21.57C367,361.16,365.17,368.41,363.1,375.58Z" transform="translate(-154.26 -312)"/><path d="M579.93,347.73c6.34,0,12.69-.13,19,0a16.7,16.7,0,0,1,14.78,10.92v24.16a17.47,17.47,0,0,1-11.69,11c-7.18,2-14.73,1-22.07,1.25C579.89,379.32,580,363.52,579.93,347.73Zm8.75,6.54q0,16.94,0,33.87c4-.11,8.39.66,12.09-1.42,3.63-1.78,5.14-6,5.28-9.82.08-4.08.09-8.15,0-12.23-.07-3.62-1.74-7.45-5.08-9.15C597.17,353.55,592.76,354.44,588.68,354.27Z" transform="translate(-154.26 -312)"/><path d="M532.16,395.11c4.26-15.94,9.5-31.63,14.25-47.44,4,0,7.93,0,11.9.11,4.84,15.84,10.18,31.51,15.08,47.32-3,0-5.93,0-8.89,0-1.54-4.2-2.58-8.57-4.28-12.71-5.3.08-10.6,0-15.9,0-1.31,4.2-2.33,8.48-3.72,12.66C537.78,395.1,535,395.11,532.16,395.11ZM552.47,354c-2.46,7.05-4.22,14.34-6.16,21.55,4,0,8,0,12,0C556.5,368.36,554.07,361.31,552.47,354Z" transform="translate(-154.26 -312)"/><path d="M435.79,350.35a69.75,69.75,0,0,1,7.94-.15q0,4.28,0,8.58c2.46,0,4.93,0,7.4,0a25.72,25.72,0,0,1,.55,6.33c-2.64.15-5.28.16-7.92.13,0,7.17-.15,14.35.07,21.52.93,3.48,5.24,2,7.91,2.22q.31,3.11.43,6.23c-4.51.86-9.61,1.46-13.65-1.24-2.86-1.92-3.41-5.6-3.55-8.78-.08-6.65,0-13.31-.06-20h-5.26q0-3.2.12-6.41h5.62C435.53,356,435.69,353.16,435.79,350.35Z" transform="translate(-154.26 -312)"/><path d="M394.15,358.78q4.32,0,8.64,0c.16,8.95-.08,17.91.11,26.85,0,2.35,2.45,3.78,4.57,3.82,3.45,0,6.44-2.23,8.43-4.89-.09-8.6-.15-17.21,0-25.82,2.72,0,5.45,0,8.18,0,.15,12.11.09,24.23,0,36.35-2.41,0-4.82,0-7.23,0-.14-1.19-.27-2.38-.41-3.56-2.6,1.64-5.07,3.71-8.22,4.13-4.9,1-10.85-1-13-5.77-1.17-2.51-1.22-5.35-1.19-8.06C394.15,374.14,394,366.46,394.15,358.78Z" transform="translate(-154.26 -312)"/><path d="M468,358.26c6.07-1.12,13.25.15,17.31,5.17,3.29,4,4.05,9.32,3.87,14.31.08,5.55-1.67,11.59-6.37,15-5.33,3.76-12.66,4.09-18.63,1.72-5.37-2.16-8.73-7.77-9-13.43-.1-5.15-.63-10.72,2.1-15.36A14.55,14.55,0,0,1,468,358.26Zm1.51,6.46c-3.68.88-5.57,4.68-5.78,8.2-.25,4.32-.6,9,1.54,13,2.59,4.39,9.3,4.71,12.73,1.17,2.17-2.59,2.52-6.13,2.54-9.39,0-3.56.06-7.47-2.15-10.48A8.67,8.67,0,0,0,469.49,364.72Z" transform="translate(-154.26 -312)"/></svg>